# xmcd
#
# Track frame offsets: 
#        150
#        20430
#        42287
#        60449
#        85790
#        104110
#        122690
#        141775
#        167820
#        182132
#        197100
#        214624
#
# Disc length: 3039 seconds
#
# Revision: 0
# Processed by: cddbd v1.5.2PL0 Copyright (c) Steve Scherf et al.
# Submitted via: ExactAudioCopy v0.99pb5
#
DISCID=a70bdd0c
DTITLE=BIG HEAD BLUES CLUB - 100 Years of ROBERT JOHNSON
DYEAR=2011
DGENRE=Blues
TTITLE0=COME ON IN MY KITCHEN
TTITLE1=RAMBLIN' ON MY MIND
TTITLE2=WHEN YOU GOT A GOOD FRIEND
TTITLE3=CROSS ROAD BLUES
TTITLE4=PREACHIN' BLUES
TTITLE5=KIND HEARTED WOMAN
TTITLE6=IF I HAD POSSESSION OVER JUDGEMENT DAY
TTITLE7=LAST FAIR DEAL GONE DOWN
TTITLE8=ALL MY LOVE IS LOVE IN VAIN
TTITLE9=SWEET HOME CHICAGO
TTITLE10=TRAVELIN' LITE
TTITLE11=SUPERMOON BLUES
EXTD=
EXTT0=
EXTT1=
EXTT2=
EXTT3=
EXTT4=
EXTT5=
EXTT6=
EXTT7=
EXTT8=
EXTT9=
EXTT10=
EXTT11=
PLAYORDER=
